<?xml version="1.0" encoding="UTF-8" ?>
<!DOCTYPE svg PUBLIC "-//W3C//DTD SVG 1.1//EN" "http://www.w3.org/Graphics/SVG/1.1/DTD/svg11.dtd">
<svg width="149pt" height="148pt" viewBox="0 0 149 148" version="1.1" xmlns="http://www.w3.org/2000/svg">
<g id="#f7f7f7ff">
<path fill="#f7f7f7" opacity="1.00" d=" M 82.24 10.99 C 83.79 10.39 84.78 9.11 85.60 7.73 C 85.51 9.96 86.78 10.68 88.82 10.52 C 87.96 11.86 87.33 13.32 87.56 14.94 C 86.72 14.65 85.88 14.35 85.04 14.05 C 84.59 14.29 83.68 14.78 83.22 15.02 C 83.06 13.64 82.76 12.28 82.24 10.99 Z" />
<path fill="#f7f7f7" opacity="1.00" d=" M 95.77 14.32 C 106.70 14.29 117.65 14.68 128.58 14.09 C 129.33 14.09 130.84 14.08 131.59 14.08 C 132.85 14.18 134.09 14.32 135.34 14.49 C 138.94 16.97 140.77 21.29 142.66 25.10 C 133.17 25.18 123.68 25.19 114.20 24.95 C 113.13 24.67 112.08 24.38 111.02 24.08 C 109.99 22.19 109.13 20.22 109.18 18.03 C 108.68 17.58 108.14 17.16 107.65 16.71 C 104.22 16.41 100.76 16.29 97.32 16.28 C 97.30 18.37 97.28 20.46 97.27 22.55 C 98.11 22.70 99.81 23.00 100.66 23.15 C 99.72 23.73 98.82 24.36 97.95 25.03 C 97.39 25.04 96.28 25.07 95.72 25.09 C 95.66 21.50 95.69 17.91 95.77 14.32 Z" />
<path fill="#f7f7f7" opacity="1.00" d=" M 76.23 21.67 C 76.10 19.61 76.08 17.55 76.36 15.50 C 76.62 16.02 77.15 17.05 77.42 17.56 C 78.58 17.82 79.75 18.05 80.93 18.27 C 80.11 18.84 79.31 19.41 78.50 19.98 C 78.57 20.72 78.72 22.21 78.79 22.95 C 78.15 22.63 76.87 21.99 76.23 21.67 Z" />
<path fill="#f7f7f7" opacity="1.00" d=" M 81.57 25.76 C 83.69 26.06 84.64 24.23 85.66 22.77 C 85.38 25.57 87.70 25.47 89.76 25.53 C 88.92 26.30 88.09 27.06 87.25 27.83 C 87.40 28.59 87.70 30.10 87.85 30.85 C 86.97 30.38 86.19 29.63 85.23 29.37 C 84.24 29.85 83.32 30.46 82.37 31.02 C 83.14 29.14 83.35 27.19 81.57 25.76 Z" />
<path fill="#f7f7f7" opacity="1.00" d=" M 75.87 36.84 C 75.88 34.71 76.14 32.60 76.40 30.49 C 76.64 31.09 77.10 32.28 77.34 32.87 C 78.56 33.02 79.78 33.14 81.01 33.24 C 79.30 34.28 78.69 36.10 78.51 38.01 C 77.63 37.62 76.75 37.23 75.87 36.84 Z" />
<path fill="#f7f7f7" opacity="1.00" d=" M 95.69 36.27 C 111.45 36.44 127.23 36.46 143.00 36.26 C 143.46 36.25 144.40 36.24 144.86 36.23 C 144.79 39.80 144.61 43.38 144.85 46.95 C 143.44 47.14 142.02 47.30 140.60 47.43 C 142.94 45.66 142.80 42.77 142.19 40.22 C 140.58 39.37 138.99 38.20 137.07 38.38 C 132.34 38.59 127.75 37.02 123.02 37.31 C 119.02 37.43 115.01 37.10 111.02 37.43 C 108.29 37.96 105.60 39.10 102.77 38.67 C 105.14 40.93 107.49 43.21 110.00 45.32 C 110.90 45.28 111.80 45.25 112.70 45.19 C 114.66 45.31 116.63 45.51 118.51 46.12 L 119.73 47.04 C 111.72 47.19 103.70 47.16 95.68 47.11 C 95.67 43.50 95.68 39.88 95.69 36.27 Z" />
<path fill="#f7f7f7" opacity="1.00" d=" M 83.80 40.61 C 84.42 39.71 85.01 38.79 85.64 37.88 C 85.80 38.59 86.14 40.01 86.31 40.71 C 87.05 40.80 88.52 40.98 89.26 41.06 C 88.61 41.75 87.95 42.43 87.29 43.09 C 87.52 44.04 87.74 44.99 87.95 45.94 C 87.02 45.50 86.09 45.07 85.16 44.62 C 84.20 45.12 83.24 45.62 82.28 46.11 C 82.61 45.04 82.94 43.97 83.26 42.89 C 82.52 42.34 81.77 41.79 81.03 41.24 C 81.72 41.08 83.10 40.77 83.80 40.61 Z" />
<path fill="#f7f7f7" opacity="1.00" d=" M 75.99 51.42 C 75.99 49.46 76.04 47.50 76.34 45.57 C 76.62 46.07 77.18 47.08 77.45 47.58 C 78.24 48.05 79.02 48.52 79.80 49.01 C 79.48 49.55 78.84 50.62 78.52 51.16 C 78.83 51.85 79.44 53.22 79.74 53.91 C 78.49 53.24 77.22 52.61 75.95 51.99 C 76.16 55.59 75.30 59.63 77.40 62.84 C 78.28 63.94 79.70 63.49 80.85 63.94 C 79.15 65.14 78.48 66.92 78.63 68.96 C 78.07 68.58 76.96 67.80 76.40 67.42 C 76.07 65.52 76.04 63.58 75.79 61.67 C 75.42 62.20 74.68 63.26 74.31 63.79 C 74.18 60.92 74.47 57.93 73.25 55.24 C 72.92 58.56 72.96 61.89 72.70 65.22 C 72.03 61.96 71.31 58.71 70.30 55.53 C 68.46 57.65 70.25 60.46 70.29 62.86 C 68.52 60.97 68.29 57.99 66.01 56.55 C 66.69 59.53 67.89 62.35 68.97 65.21 C 67.02 62.88 65.20 60.34 62.64 58.64 C 63.62 61.05 65.19 63.15 66.53 65.37 C 64.34 63.86 62.25 62.21 60.00 60.78 C 61.28 63.50 63.59 65.45 65.77 67.42 C 64.76 67.89 63.75 68.37 62.74 68.85 C 60.44 67.98 58.06 67.27 55.59 67.05 C 58.43 69.20 61.89 70.23 65.10 71.68 C 62.01 71.14 58.90 70.79 55.78 70.49 L 55.87 71.79 C 58.47 71.90 61.01 72.44 63.29 73.72 C 60.30 73.81 56.90 72.70 54.34 74.77 C 57.76 75.13 61.25 74.71 64.61 75.56 C 61.46 76.14 58.12 76.12 55.19 77.57 C 55.22 77.86 55.28 78.43 55.31 78.71 C 57.54 78.74 59.64 77.84 61.75 77.24 C 62.67 78.12 63.68 78.90 64.61 79.77 C 61.74 80.93 58.99 82.62 57.51 85.46 C 59.99 84.69 62.14 83.23 64.24 81.76 C 62.61 83.83 60.32 85.61 59.82 88.34 C 62.51 87.07 64.44 84.81 65.94 82.30 C 66.06 82.58 66.31 83.14 66.44 83.42 C 64.81 85.56 63.45 87.91 62.73 90.52 C 65.23 89.40 66.36 86.79 67.85 84.68 C 69.55 85.22 71.19 84.26 72.45 83.20 C 71.58 84.63 70.82 86.11 70.03 87.59 C 70.75 87.28 72.18 86.68 72.90 86.38 C 72.91 88.84 72.96 91.30 73.19 93.75 C 75.11 90.76 74.08 87.02 74.32 83.66 C 74.75 85.55 75.18 87.44 75.68 89.32 C 76.00 86.50 76.15 83.67 76.08 80.84 C 82.72 80.70 89.37 80.97 96.01 80.71 C 112.20 80.41 128.40 80.71 144.60 80.64 C 144.73 84.22 144.72 87.80 144.73 91.37 C 121.82 91.84 98.89 91.38 75.97 91.61 C 75.96 93.41 75.94 95.22 75.96 97.03 C 54.61 97.21 33.27 97.01 11.92 97.13 C 9.34 97.16 6.78 96.71 4.26 96.17 C 4.64 81.58 4.50 66.95 4.33 52.35 L 5.10 52.35 C 6.11 52.37 7.13 52.53 8.15 52.47 C 24.10 52.16 40.06 52.49 56.01 52.06 C 62.67 51.73 69.41 52.70 75.99 51.42 M 6.41 53.98 C 6.25 67.67 6.11 81.39 6.52 95.06 C 6.99 85.05 6.61 75.01 6.68 64.99 C 6.64 61.32 6.98 57.62 6.41 53.98 M 63.81 67.67 C 62.68 65.40 60.12 64.54 58.16 63.18 C 58.22 66.19 61.32 67.20 63.81 67.67 M 55.98 81.88 C 58.36 81.21 61.30 80.99 62.70 78.63 C 60.44 79.23 56.69 79.04 55.98 81.88 M 65.84 92.28 C 68.71 91.15 68.85 87.59 69.73 85.09 C 66.55 85.65 66.51 89.76 65.84 92.28 M 70.41 88.11 C 69.73 89.42 69.21 91.19 69.64 92.64 C 71.80 93.34 72.29 88.24 70.41 88.11 Z" />
<path fill="#f7f7f7" opacity="1.00" d=" M 84.51 55.61 C 84.83 54.70 85.16 53.79 85.50 52.89 C 85.69 53.64 86.09 55.13 86.29 55.88 C 86.97 55.93 88.32 56.04 89.00 56.09 C 88.09 57.57 87.37 59.12 87.72 60.92 C 86.11 60.17 84.45 60.05 82.83 60.90 C 83.25 58.99 82.59 57.43 81.06 56.28 C 82.21 56.07 83.36 55.84 84.51 55.61 Z" />
<path fill="#f7f7f7" opacity="1.00" d=" M 95.67 58.29 C 110.99 58.58 126.32 58.28 141.64 58.84 C 139.84 61.35 136.22 59.59 133.79 60.91 C 132.34 61.74 131.19 63.04 130.56 64.58 C 132.37 66.93 135.87 66.87 137.71 69.24 C 123.77 69.33 109.84 69.81 95.89 69.50 C 95.56 65.77 95.62 62.03 95.67 58.29 Z" />
<path fill="#f7f7f7" opacity="1.00" d=" M 81.01 71.41 C 83.23 71.67 84.84 70.60 85.71 68.59 C 85.30 71.49 87.78 71.34 89.86 71.46 C 89.03 72.09 88.21 72.72 87.39 73.35 C 87.55 74.57 87.71 75.78 87.86 77.00 C 87.14 76.35 86.42 75.70 85.71 75.05 C 84.73 75.47 83.74 75.90 82.76 76.32 C 82.82 75.54 82.93 73.98 82.98 73.20 C 82.32 72.61 81.66 72.01 81.01 71.41 Z" />
<path fill="#f7f7f7" opacity="1.00" d=" M 75.96 102.90 C 98.87 102.85 121.78 102.90 144.68 102.88 C 144.85 106.50 144.90 110.13 144.72 113.75 C 121.81 113.35 98.87 113.61 75.95 113.62 C 75.86 110.05 75.91 106.47 75.96 102.90 Z" />
<path fill="#f7f7f7" opacity="1.00" d=" M 76.01 124.77 C 81.86 124.69 87.70 124.67 93.55 124.80 C 96.50 125.99 99.72 125.75 102.82 126.01 C 101.64 127.86 99.37 127.05 97.59 127.20 C 98.64 129.32 97.92 131.23 96.45 132.93 C 96.60 133.04 96.90 133.26 97.05 133.37 C 98.00 133.31 98.95 133.25 99.90 133.15 L 100.00 132.97 C 107.12 134.50 114.45 132.88 121.58 134.28 C 125.65 134.92 129.79 134.68 133.89 134.70 L 133.87 135.65 L 133.38 135.63 C 114.23 135.50 95.09 135.54 75.95 135.61 C 75.89 132.00 75.90 128.38 76.01 124.77 Z" />
</g>
<g id="#2e2b2aff">
<path fill="#2e2b2a" opacity="1.00" d=" M 26.41 1.63 C 28.62 1.19 30.86 0.89 33.11 0.78 C 59.39 0.73 85.69 0.87 111.97 0.83 C 118.80 0.13 125.84 1.70 131.66 5.37 C 141.51 10.92 147.71 21.98 148.42 33.12 C 148.25 60.05 148.41 86.98 148.37 113.91 C 148.29 130.22 135.30 145.56 118.91 147.31 C 103.31 146.65 87.68 147.51 72.07 147.01 C 59.05 146.99 46.04 146.97 33.02 147.06 C 17.84 147.70 4.51 135.07 1.55 120.67 C 0.89 116.16 0.17 111.62 0.47 107.05 C 0.55 83.68 0.56 60.32 0.52 36.96 C 0.95 31.43 1.25 25.66 3.81 20.62 C 8.06 11.41 16.44 3.94 26.41 1.63 M 17.64 11.09 L 16.97 11.19 C 10.85 16.14 6.31 23.19 5.17 31.06 C 5.06 38.15 5.05 45.25 5.10 52.35 L 4.33 52.35 C 4.50 66.95 4.64 81.58 4.26 96.17 C 3.73 101.76 4.51 107.37 4.05 112.96 C 3.79 116.02 5.20 118.85 6.61 121.47 C 9.38 133.75 21.64 142.61 34.00 142.94 C 47.99 143.00 61.98 142.82 75.97 143.02 C 89.29 143.32 102.62 143.14 115.95 143.20 C 122.18 142.29 129.11 140.62 133.38 135.63 L 133.87 135.65 L 133.89 134.70 L 134.59 134.66 C 137.63 131.82 140.42 128.48 141.81 124.50 L 142.62 124.25 L 142.86 124.45 C 143.09 123.18 143.44 121.95 143.91 120.75 C 144.12 119.13 144.27 117.50 144.40 115.88 L 145.39 116.16 C 145.22 115.56 144.88 114.35 144.72 113.75 C 144.90 110.13 144.85 106.50 144.68 102.88 L 145.19 102.88 C 145.17 99.04 145.16 95.19 145.16 91.35 L 144.73 91.37 C 144.72 87.80 144.73 84.22 144.60 80.64 L 145.19 80.65 C 145.14 76.89 145.14 73.14 145.18 69.39 L 144.59 69.38 C 144.86 65.88 144.87 62.38 144.59 58.88 L 145.21 58.89 L 145.08 58.15 C 145.19 54.42 145.40 50.66 144.85 46.95 C 144.61 43.38 144.79 39.80 144.86 36.23 C 144.40 36.24 143.46 36.25 143.00 36.26 L 143.82 35.43 C 143.77 32.34 143.33 29.24 141.59 26.60 C 141.86 26.23 142.39 25.48 142.66 25.10 C 140.77 21.29 138.94 16.97 135.34 14.49 C 134.53 11.70 131.10 10.73 129.08 8.84 C 118.94 3.10 106.92 5.25 95.81 4.69 L 95.95 5.81 C 94.69 5.25 93.43 4.58 92.00 4.70 C 86.70 4.68 81.40 4.64 76.10 4.86 C 63.73 5.16 51.36 4.98 38.99 4.97 C 31.55 4.60 23.39 6.11 17.64 11.09 Z" />
</g>
<g id="#95bde1ff">
<path fill="#95bde1" opacity="1.00" d=" M 17.64 11.09 C 23.39 6.11 31.55 4.60 38.99 4.97 C 51.36 4.98 63.73 5.16 76.10 4.86 C 75.96 8.41 75.86 11.97 76.36 15.50 C 76.08 17.55 76.10 19.61 76.23 21.67 C 75.93 24.60 75.82 27.58 76.40 30.49 C 76.14 32.60 75.88 34.71 75.87 36.84 C 75.90 39.76 76.03 42.67 76.34 45.57 C 76.04 47.50 75.99 49.46 75.99 51.42 C 69.41 52.70 62.67 51.73 56.01 52.06 C 40.06 52.49 24.10 52.16 8.15 52.47 C 4.64 45.62 5.87 37.66 7.37 30.44 C 8.69 24.10 12.69 18.67 17.48 14.46 C 21.11 11.37 25.71 9.87 30.08 8.15 C 25.73 8.26 21.95 10.77 17.64 11.09 Z" />
</g>
<g id="#675c8aff">
<path fill="#675c8a" opacity="1.00" d=" M 76.10 4.86 C 81.40 4.64 86.70 4.68 92.00 4.70 C 93.43 4.58 94.69 5.25 95.95 5.81 C 95.94 6.30 95.92 7.30 95.90 7.79 C 95.85 9.97 95.80 12.15 95.77 14.32 C 95.69 17.91 95.66 21.50 95.72 25.09 L 95.73 25.88 C 95.74 29.35 95.70 32.81 95.69 36.27 C 95.68 39.88 95.67 43.50 95.68 47.11 C 95.70 50.84 95.73 54.56 95.67 58.29 C 95.62 62.03 95.56 65.77 95.89 69.50 L 95.97 70.25 C 96.21 73.17 96.24 76.10 96.13 79.03 C 96.10 79.45 96.04 80.29 96.01 80.71 C 89.37 80.97 82.72 80.70 76.08 80.84 C 75.91 76.36 75.41 71.84 76.40 67.42 C 76.96 67.80 78.07 68.58 78.63 68.96 C 78.48 66.92 79.15 65.14 80.85 63.94 C 79.70 63.49 78.28 63.94 77.40 62.84 C 75.30 59.63 76.16 55.59 75.95 51.99 C 77.22 52.61 78.49 53.24 79.74 53.91 C 79.44 53.22 78.83 51.85 78.52 51.16 C 78.84 50.62 79.48 49.55 79.80 49.01 C 79.02 48.52 78.24 48.05 77.45 47.58 C 77.18 47.08 76.62 46.07 76.34 45.57 C 76.03 42.67 75.90 39.76 75.87 36.84 C 76.75 37.23 77.63 37.62 78.51 38.01 C 78.69 36.10 79.30 34.28 81.01 33.24 C 79.78 33.14 78.56 33.02 77.34 32.87 C 77.10 32.28 76.64 31.09 76.40 30.49 C 75.82 27.58 75.93 24.60 76.23 21.67 C 76.87 21.99 78.15 22.63 78.79 22.95 C 78.72 22.21 78.57 20.72 78.50 19.98 C 79.31 19.41 80.11 18.84 80.93 18.27 C 79.75 18.05 78.58 17.82 77.42 17.56 C 77.15 17.05 76.62 16.02 76.36 15.50 C 75.86 11.97 75.96 8.41 76.10 4.86 M 82.24 10.99 C 82.76 12.28 83.06 13.64 83.22 15.02 C 83.68 14.78 84.59 14.29 85.04 14.05 C 85.88 14.35 86.72 14.65 87.56 14.94 C 87.33 13.32 87.96 11.86 88.82 10.52 C 86.78 10.68 85.51 9.96 85.60 7.73 C 84.78 9.11 83.79 10.39 82.24 10.99 M 81.57 25.76 C 83.35 27.19 83.14 29.14 82.37 31.02 C 83.32 30.46 84.24 29.85 85.23 29.37 C 86.19 29.63 86.97 30.38 87.85 30.85 C 87.70 30.10 87.40 28.59 87.25 27.83 C 88.09 27.06 88.92 26.30 89.76 25.53 C 87.70 25.47 85.38 25.57 85.66 22.77 C 84.64 24.23 83.69 26.06 81.57 25.76 M 83.80 40.61 C 83.10 40.77 81.72 41.08 81.03 41.24 C 81.77 41.79 82.52 42.34 83.26 42.89 C 82.94 43.97 82.61 45.04 82.28 46.11 C 83.24 45.62 84.20 45.12 85.16 44.62 C 86.09 45.07 87.02 45.50 87.95 45.94 C 87.74 44.99 87.52 44.04 87.29 43.09 C 87.95 42.43 88.61 41.75 89.26 41.06 C 88.52 40.98 87.05 40.80 86.31 40.71 C 86.14 40.01 85.80 38.59 85.64 37.88 C 85.01 38.79 84.42 39.71 83.80 40.61 M 84.51 55.61 C 83.36 55.84 82.21 56.07 81.06 56.28 C 82.59 57.43 83.25 58.99 82.83 60.90 C 84.45 60.05 86.11 60.17 87.72 60.92 C 87.37 59.12 88.09 57.57 89.00 56.09 C 88.32 56.04 86.97 55.93 86.29 55.88 C 86.09 55.13 85.69 53.64 85.50 52.89 C 85.16 53.79 84.83 54.70 84.51 55.61 M 81.01 71.41 C 81.66 72.01 82.32 72.61 82.98 73.20 C 82.93 73.98 82.82 75.54 82.76 76.32 C 83.74 75.90 84.73 75.47 85.71 75.05 C 86.42 75.70 87.14 76.35 87.86 77.00 C 87.71 75.78 87.55 74.57 87.39 73.35 C 88.21 72.72 89.03 72.09 89.86 71.46 C 87.78 71.34 85.30 71.49 85.71 68.59 C 84.84 70.60 83.23 71.67 81.01 71.41 Z" />
</g>
<g id="#d91c2fff">
<path fill="#d91c2f" opacity="1.00" d=" M 95.81 4.69 C 106.92 5.25 118.94 3.10 129.08 8.84 C 131.10 10.73 134.53 11.70 135.34 14.49 C 134.09 14.32 132.85 14.18 131.59 14.08 C 130.11 11.91 127.97 10.32 125.55 9.33 C 121.44 7.61 117.14 5.83 112.59 6.05 C 111.22 6.22 109.84 6.20 108.48 6.03 C 107.19 6.23 105.88 6.27 104.59 6.12 C 101.72 5.88 98.83 5.76 95.95 5.81 L 95.81 4.69 Z" />
<path fill="#d91c2f" opacity="1.00" d=" M 141.32 114.93 C 142.34 115.27 143.36 115.58 144.40 115.88 C 144.27 117.50 144.12 119.13 143.91 120.75 C 143.44 121.95 143.09 123.18 142.86 124.45 L 142.62 124.25 C 141.56 123.37 140.45 122.55 139.28 121.83 C 140.28 121.16 141.29 120.50 142.35 119.92 C 141.75 119.04 141.11 118.18 140.42 117.37 C 142.28 117.28 142.21 116.26 141.32 114.93 Z" />
</g>
<g id="#e17364ff">
<path fill="#e17364" opacity="1.00" d=" M 95.95 5.81 C 98.83 5.76 101.72 5.88 104.59 6.12 C 105.88 6.27 107.19 6.23 108.48 6.03 C 109.84 6.20 111.22 6.22 112.59 6.05 C 117.14 5.83 121.44 7.61 125.55 9.33 C 127.97 10.32 130.11 11.91 131.59 14.08 C 130.84 14.08 129.33 14.09 128.58 14.09 C 126.17 12.09 123.27 10.85 120.23 10.20 C 120.14 9.83 119.96 9.09 119.87 8.72 C 119.43 9.32 119.00 9.93 118.57 10.54 C 117.48 9.03 115.74 8.41 114.05 7.83 C 113.92 8.38 113.66 9.47 113.53 10.02 C 113.36 9.43 113.02 8.26 112.85 7.67 C 112.44 8.29 112.02 8.91 111.61 9.53 C 110.72 8.92 109.92 8.02 108.77 7.99 C 104.51 7.47 100.19 7.73 95.90 7.79 C 95.92 7.30 95.94 6.30 95.95 5.81 Z" />
<path fill="#e17364" opacity="1.00" d=" M 95.72 25.09 C 96.28 25.07 97.39 25.04 97.95 25.03 C 103.37 25.15 108.78 25.15 114.20 24.95 C 123.68 25.19 133.17 25.18 142.66 25.10 C 142.39 25.48 141.86 26.23 141.59 26.60 C 143.33 29.24 143.77 32.34 143.82 35.43 C 142.61 34.58 140.74 34.44 139.91 33.12 C 139.51 31.19 139.19 29.25 138.60 27.37 C 139.05 27.05 139.93 26.41 140.38 26.09 C 134.61 25.46 128.80 25.69 123.01 25.72 C 113.92 25.82 104.82 25.39 95.73 25.88 L 95.72 25.09 Z" />
<path fill="#e17364" opacity="1.00" d=" M 95.97 70.25 C 104.64 70.38 113.32 70.38 121.99 70.23 C 117.00 74.17 110.76 75.74 104.80 77.60 C 101.99 78.47 99.04 78.70 96.13 79.03 C 96.24 76.10 96.21 73.17 95.97 70.25 Z" />
</g>
<g id="#53a1d2ff">
<path fill="#53a1d2" opacity="1.00" d=" M 17.64 11.09 C 21.95 10.77 25.73 8.26 30.08 8.15 C 25.71 9.87 21.11 11.37 17.48 14.46 C 12.69 18.67 8.69 24.10 7.37 30.44 C 5.87 37.66 4.64 45.62 8.15 52.47 C 7.13 52.53 6.11 52.37 5.10 52.35 C 5.05 45.25 5.06 38.15 5.17 31.06 C 6.31 23.19 10.85 16.14 16.97 11.19 L 17.64 11.09 Z" />
<path fill="#53a1d2" opacity="1.00" d=" M 4.26 96.17 C 6.78 96.71 9.34 97.16 11.92 97.13 C 33.27 97.01 54.61 97.21 75.96 97.03 C 75.97 98.99 75.99 100.95 75.96 102.90 C 75.91 106.47 75.86 110.05 75.95 113.62 C 76.06 117.33 76.09 121.05 76.01 124.77 C 75.90 128.38 75.89 132.00 75.95 135.61 C 75.99 138.08 75.99 140.55 75.97 143.02 C 61.98 142.82 47.99 143.00 34.00 142.94 C 21.64 142.61 9.38 133.75 6.61 121.47 C 5.20 118.85 3.79 116.02 4.05 112.96 C 4.51 107.37 3.73 101.76 4.26 96.17 Z" />
</g>
<g id="#c55c46ff">
<path fill="#c55c46" opacity="1.00" d=" M 95.90 7.79 C 100.19 7.73 104.51 7.47 108.77 7.99 C 109.92 8.02 110.72 8.92 111.61 9.53 C 112.02 8.91 112.44 8.29 112.85 7.67 C 113.02 8.26 113.36 9.43 113.53 10.02 C 113.66 9.47 113.92 8.38 114.05 7.83 C 115.74 8.41 117.48 9.03 118.57 10.54 C 119.00 9.93 119.43 9.32 119.87 8.72 C 119.96 9.09 120.14 9.83 120.23 10.20 C 123.27 10.85 126.17 12.09 128.58 14.09 C 117.65 14.68 106.70 14.29 95.77 14.32 C 95.80 12.15 95.85 9.97 95.90 7.79 Z" />
<path fill="#c55c46" opacity="1.00" d=" M 95.73 25.88 C 104.82 25.39 113.92 25.82 123.01 25.72 C 128.80 25.69 134.61 25.46 140.38 26.09 C 139.93 26.41 139.05 27.05 138.60 27.37 C 139.19 29.25 139.51 31.19 139.91 33.12 C 140.74 34.44 142.61 34.58 143.82 35.43 L 143.00 36.26 C 127.23 36.46 111.45 36.44 95.69 36.27 C 95.70 32.81 95.74 29.35 95.73 25.88 Z" />
<path fill="#c55c46" opacity="1.00" d=" M 95.68 47.11 C 103.70 47.16 111.72 47.19 119.73 47.04 C 123.76 47.18 127.78 47.08 131.81 47.29 C 135.22 47.57 138.64 47.82 142.07 47.97 C 141.30 51.83 137.66 54.42 136.80 58.03 C 139.55 58.34 142.32 58.20 145.08 58.15 L 145.21 58.89 L 144.59 58.88 C 143.85 58.87 142.37 58.85 141.64 58.84 C 126.32 58.28 110.99 58.58 95.67 58.29 C 95.73 54.56 95.70 50.84 95.68 47.11 Z" />
</g>
<g id="#e6e6e6ff">
<path fill="#e6e6e6" opacity="1.00" d=" M 97.32 16.28 C 100.76 16.29 104.22 16.41 107.65 16.71 C 108.14 17.16 108.68 17.58 109.18 18.03 C 109.13 20.22 109.99 22.19 111.02 24.08 C 112.08 24.38 113.13 24.67 114.20 24.95 C 108.78 25.15 103.37 25.15 97.95 25.03 C 98.82 24.36 99.72 23.73 100.66 23.15 C 99.81 23.00 98.11 22.70 97.27 22.55 C 97.28 20.46 97.30 18.37 97.32 16.28 Z" />
<path fill="#e6e6e6" opacity="1.00" d=" M 102.77 38.67 C 105.60 39.10 108.29 37.96 111.02 37.43 C 115.01 37.10 119.02 37.43 123.02 37.31 C 127.75 37.02 132.34 38.59 137.07 38.38 C 138.99 38.20 140.58 39.37 142.19 40.22 C 142.80 42.77 142.94 45.66 140.60 47.43 C 137.67 47.40 134.74 47.33 131.81 47.29 C 127.78 47.08 123.76 47.18 119.73 47.04 L 118.51 46.12 C 116.63 45.51 114.66 45.31 112.70 45.19 C 111.80 45.25 110.90 45.28 110.00 45.32 C 107.49 43.21 105.14 40.93 102.77 38.67 Z" />
<path fill="#e6e6e6" opacity="1.00" d=" M 6.41 53.98 C 6.98 57.62 6.64 61.32 6.68 64.99 C 6.61 75.01 6.99 85.05 6.52 95.06 C 6.11 81.39 6.25 67.67 6.41 53.98 Z" />
<path fill="#e6e6e6" opacity="1.00" d=" M 141.64 58.84 C 142.37 58.85 143.85 58.87 144.59 58.88 C 144.87 62.38 144.86 65.88 144.59 69.38 C 142.30 69.35 140.00 69.28 137.71 69.24 C 135.87 66.87 132.37 66.93 130.56 64.58 C 131.19 63.04 132.34 61.74 133.79 60.91 C 136.22 59.59 139.84 61.35 141.64 58.84 Z" />
<path fill="#e6e6e6" opacity="1.00" d=" M 93.55 124.80 C 109.63 124.44 125.74 125.01 141.81 124.50 C 140.42 128.48 137.63 131.82 134.59 134.66 L 133.89 134.70 C 129.79 134.68 125.65 134.92 121.58 134.28 C 114.45 132.88 107.12 134.50 100.00 132.97 L 99.90 133.15 C 98.95 133.25 98.00 133.31 97.05 133.37 C 96.90 133.26 96.60 133.04 96.45 132.93 C 97.92 131.23 98.64 129.32 97.59 127.20 C 99.37 127.05 101.64 127.86 102.82 126.01 C 99.72 125.75 96.50 125.99 93.55 124.80 Z" />
</g>
<g id="#be0b0fff">
<path fill="#be0b0f" opacity="1.00" d=" M 131.81 47.29 C 134.74 47.33 137.67 47.40 140.60 47.43 C 142.02 47.30 143.44 47.14 144.85 46.95 C 145.40 50.66 145.19 54.42 145.08 58.15 C 142.32 58.20 139.55 58.34 136.80 58.03 C 137.66 54.42 141.30 51.83 142.07 47.97 C 138.64 47.82 135.22 47.57 131.81 47.29 Z" />
<path fill="#be0b0f" opacity="1.00" d=" M 95.89 69.50 C 109.84 69.81 123.77 69.33 137.71 69.24 C 140.00 69.28 142.30 69.35 144.59 69.38 L 145.18 69.39 C 145.14 73.14 145.14 76.89 145.19 80.65 L 144.60 80.64 C 128.40 80.71 112.20 80.41 96.01 80.71 C 96.04 80.29 96.10 79.45 96.13 79.03 C 99.04 78.70 101.99 78.47 104.80 77.60 C 110.76 75.74 117.00 74.17 121.99 70.23 C 113.32 70.38 104.64 70.38 95.97 70.25 L 95.89 69.50 Z" />
<path fill="#be0b0f" opacity="1.00" d=" M 144.73 91.37 L 145.16 91.35 C 145.16 95.19 145.17 99.04 145.19 102.88 L 144.68 102.88 C 121.78 102.90 98.87 102.85 75.96 102.90 C 75.99 100.95 75.97 98.99 75.96 97.03 C 75.94 95.22 75.96 93.41 75.97 91.61 C 98.89 91.38 121.82 91.84 144.73 91.37 Z" />
<path fill="#be0b0f" opacity="1.00" d=" M 75.95 113.62 C 98.87 113.61 121.81 113.35 144.72 113.75 C 144.88 114.35 145.22 115.56 145.39 116.16 L 144.40 115.88 C 143.36 115.58 142.34 115.27 141.32 114.93 C 142.21 116.26 142.28 117.28 140.42 117.37 C 141.11 118.18 141.75 119.04 142.35 119.92 C 141.29 120.50 140.28 121.16 139.28 121.83 C 140.45 122.55 141.56 123.37 142.62 124.25 L 141.81 124.50 C 125.74 125.01 109.63 124.44 93.55 124.80 C 87.70 124.67 81.86 124.69 76.01 124.77 C 76.09 121.05 76.06 117.33 75.95 113.62 Z" />
<path fill="#be0b0f" opacity="1.00" d=" M 75.95 135.61 C 95.09 135.54 114.23 135.50 133.38 135.63 C 129.11 140.62 122.18 142.29 115.95 143.20 C 102.62 143.14 89.29 143.32 75.97 143.02 C 75.99 140.55 75.99 138.08 75.95 135.61 Z" />
</g>
<g id="#f4d75bff">
<path fill="#f4d75b" opacity="1.00" d=" M 70.29 62.86 C 70.25 60.46 68.46 57.65 70.30 55.53 C 71.31 58.71 72.03 61.96 72.70 65.22 C 72.96 61.89 72.92 58.56 73.25 55.24 C 74.47 57.93 74.18 60.92 74.31 63.79 C 74.68 63.26 75.42 62.20 75.79 61.67 C 76.04 63.58 76.07 65.52 76.40 67.42 C 75.41 71.84 75.91 76.36 76.08 80.84 C 76.15 83.67 76.00 86.50 75.68 89.32 C 75.18 87.44 74.75 85.55 74.32 83.66 C 74.08 87.02 75.11 90.76 73.19 93.75 C 72.96 91.30 72.91 88.84 72.90 86.38 C 72.18 86.68 70.75 87.28 70.03 87.59 C 70.82 86.11 71.58 84.63 72.45 83.20 C 71.19 84.26 69.55 85.22 67.85 84.68 C 66.36 86.79 65.23 89.40 62.73 90.52 C 63.45 87.91 64.81 85.56 66.44 83.42 C 66.31 83.14 66.06 82.58 65.94 82.30 C 64.44 84.81 62.51 87.07 59.82 88.34 C 60.32 85.61 62.61 83.83 64.24 81.76 C 62.14 83.23 59.99 84.69 57.51 85.46 C 58.99 82.62 61.74 80.93 64.61 79.77 C 63.68 78.90 62.67 78.12 61.75 77.24 C 59.64 77.84 57.54 78.74 55.31 78.71 C 55.28 78.43 55.22 77.86 55.19 77.57 C 58.12 76.12 61.46 76.14 64.61 75.56 C 61.25 74.71 57.76 75.13 54.34 74.77 C 56.90 72.70 60.30 73.81 63.29 73.72 C 61.01 72.44 58.47 71.90 55.87 71.79 L 55.78 70.49 C 58.90 70.79 62.01 71.14 65.10 71.68 C 61.89 70.23 58.43 69.20 55.59 67.05 C 58.06 67.27 60.44 67.98 62.74 68.85 C 63.75 68.37 64.76 67.89 65.77 67.42 C 63.59 65.45 61.28 63.50 60.00 60.78 C 62.25 62.21 64.34 63.86 66.53 65.37 C 65.19 63.15 63.62 61.05 62.64 58.64 C 65.20 60.34 67.02 62.88 68.97 65.21 C 67.89 62.35 66.69 59.53 66.01 56.55 C 68.29 57.99 68.52 60.97 70.29 62.86 Z" />
<path fill="#f4d75b" opacity="1.00" d=" M 63.81 67.67 C 61.32 67.20 58.22 66.19 58.16 63.18 C 60.12 64.54 62.68 65.40 63.81 67.67 Z" />
<path fill="#f4d75b" opacity="1.00" d=" M 55.98 81.88 C 56.69 79.04 60.44 79.23 62.70 78.63 C 61.30 80.99 58.36 81.21 55.98 81.88 Z" />
<path fill="#f4d75b" opacity="1.00" d=" M 65.84 92.28 C 66.51 89.76 66.55 85.65 69.73 85.09 C 68.85 87.59 68.71 91.15 65.84 92.28 Z" />
<path fill="#f4d75b" opacity="1.00" d=" M 70.41 88.11 C 72.29 88.24 71.80 93.34 69.64 92.64 C 69.21 91.19 69.73 89.42 70.41 88.11 Z" />
</g>
</svg>
